<svg width="141" height="76" viewBox="0 0 141 76" fill="none" xmlns="http://www.w3.org/2000/svg">
<ellipse cx="65" cy="38" rx="65" ry="38" fill="#F7743C"/>
<ellipse cx="65.5" cy="37" rx="37.5" ry="30" fill="black"/>
<path d="M57.7649 45H62.5169C67.7969 45 70.8689 41.856 70.8689 36.096C70.8689 30.336 67.7969 27.336 62.3729 27.336H57.7649V45ZM60.5729 42.72V29.592H62.1569C65.9489 29.592 68.0129 31.704 68.0129 36.096C68.0129 40.488 65.9489 42.72 62.1569 42.72H60.5729ZM74.3062 45H77.0902V31.8H74.3062V45ZM75.6982 29.328C76.7062 29.328 77.4262 28.68 77.4262 27.672C77.4262 26.688 76.7062 26.04 75.6982 26.04C74.6662 26.04 73.9942 26.688 73.9942 27.672C73.9942 28.68 74.6662 29.328 75.6982 29.328ZM85.7563 50.928C89.9803 50.928 92.6683 48.864 92.6683 46.32C92.6683 44.064 91.0363 43.104 87.9163 43.104H85.4683C83.8123 43.104 83.2603 42.6 83.2603 41.832C83.2603 41.184 83.5723 40.8 83.9803 40.44C84.5803 40.704 85.2523 40.824 85.8283 40.824C88.6123 40.824 90.7963 39.192 90.7963 36.288C90.7963 35.28 90.4363 34.416 89.9323 33.888H92.4283V31.8H87.7723C87.2683 31.608 86.5963 31.464 85.8283 31.464C83.1163 31.464 80.7163 33.216 80.7163 36.216C80.7163 37.776 81.5803 39.048 82.4683 39.72V39.816C81.7243 40.344 81.0043 41.232 81.0043 42.264C81.0043 43.344 81.5083 44.04 82.2043 44.472V44.592C80.9803 45.312 80.2843 46.344 80.2843 47.472C80.2843 49.752 82.5883 50.928 85.7563 50.928ZM85.8283 39.048C84.4843 39.048 83.3563 37.968 83.3563 36.216C83.3563 34.44 84.4603 33.432 85.8283 33.432C87.2203 33.432 88.3243 34.44 88.3243 36.216C88.3243 37.968 87.1963 39.048 85.8283 39.048ZM86.1643 49.104C83.9803 49.104 82.6363 48.336 82.6363 47.064C82.6363 46.392 82.9723 45.72 83.7643 45.12C84.3163 45.264 84.8923 45.312 85.5163 45.312H87.5083C89.1163 45.312 89.9803 45.672 89.9803 46.776C89.9803 47.976 88.4683 49.104 86.1643 49.104ZM95.0953 45H97.8793V31.8H95.0953V45ZM96.4873 29.328C97.4953 29.328 98.2153 28.68 98.2153 27.672C98.2153 26.688 97.4953 26.04 96.4873 26.04C95.4553 26.04 94.7833 26.688 94.7833 27.672C94.7833 28.68 95.4553 29.328 96.4873 29.328ZM107.313 45.336C111.177 45.336 113.529 43.008 113.529 40.176C113.529 37.584 112.017 36.288 109.929 35.4L107.505 34.392C106.065 33.792 104.649 33.216 104.649 31.704C104.649 30.312 105.801 29.448 107.601 29.448C109.161 29.448 110.409 30.048 111.513 31.008L112.953 29.256C111.633 27.888 109.689 27.024 107.601 27.024C104.241 27.024 101.817 29.112 101.817 31.896C101.817 34.464 103.689 35.808 105.393 36.504L107.841 37.584C109.473 38.28 110.673 38.784 110.673 40.392C110.673 41.904 109.473 42.888 107.361 42.888C105.657 42.888 103.905 42.072 102.657 40.8L101.025 42.744C102.633 44.376 104.865 45.336 107.313 45.336ZM122.131 45.336C123.859 45.336 125.371 44.76 126.595 43.944L125.635 42.168C124.651 42.792 123.667 43.152 122.491 43.152C120.211 43.152 118.627 41.664 118.411 39.144H126.979C127.051 38.808 127.099 38.28 127.099 37.728C127.099 33.984 125.203 31.464 121.723 31.464C118.651 31.464 115.699 34.128 115.699 38.424C115.699 42.768 118.531 45.336 122.131 45.336ZM118.363 37.224C118.651 34.92 120.115 33.648 121.771 33.648C123.691 33.648 124.699 34.944 124.699 37.224H118.363ZM135.581 45.336C137.117 45.336 138.677 44.76 139.877 43.704L138.749 41.856C137.957 42.528 136.973 43.056 135.869 43.056C133.661 43.056 132.149 41.208 132.149 38.424C132.149 35.616 133.709 33.768 135.965 33.768C136.853 33.768 137.597 34.152 138.317 34.776L139.661 33C138.725 32.136 137.501 31.464 135.821 31.464C132.341 31.464 129.293 34.008 129.293 38.424C129.293 42.792 132.029 45.336 135.581 45.336Z" fill="white"/>
</svg>
